<svg xmlns="http://www.w3.org/2000/svg" width="71" height="71" viewBox="0 0 71 71">
    <g fill="none" fill-rule="evenodd">
        <g>
            <g transform="translate(-539 -1283) translate(539.243 1283.979)">
                <rect width="70" height="70" fill="#D8FFEA" rx="22"/>
                <g fill="#3DBC79" fill-rule="nonzero">
                    <path d="M3.375.712v11.19c0 .847.527 1.595 1.32 1.863.192.064.393.096.596.096.634 0 1.226-.318 1.583-.85l1.1-1.64L9.068 13c.356.54.949.862 1.586.862.197 0 .39-.03.61-.101.783-.265 1.31-1.013 1.31-1.86V.712h9.764c1.036 0 1.879.843 1.879 1.878v19.282c-.203-.072-.418-.114-.64-.114H17.96c-1.88 0-3.41 1.529-3.41 3.41v5.61c0 .223.043.438.115.64H1.97c-1.036 0-1.878-.84-1.878-1.87V2.59C.093 1.555.935.712 1.972.712h1.402zm20.03 20.503c.326 0 .62.186.751.474.123.297.058.632-.18.85l-9.072 8.653c-.164.148-.367.226-.58.226-.107 0-.212-.015-.311-.054-.31-.125-.506-.405-.506-.724v-6.832c0-1.434 1.218-2.593 2.72-2.593h7.177zm-11.948 1.047H3.233c-.384 0-.697.544-.697 1.216 0 .67.313 1.215.697 1.215h8.224c.385 0 .698-.546.698-1.215 0-.672-.313-1.216-.698-1.216zm9.65-5.9H3.373c-.414 0-.752.667-.752 1.494 0 .824.338 1.493.752 1.493h17.734c.415 0 .752-.669.752-1.495 0-.823-.337-1.494-.752-1.494v.002zM12.457.712c.588 0 1.05.4 1.05.888v13.873c0 .382-.294.728-.724.844-.105.026-.21.043-.325.043-.325 0-.65-.132-.85-.372l-3.545-4.2-3.544 4.2c-.262.311-.734.444-1.174.328-.43-.115-.724-.461-.724-.844V1.602c0-.49.471-.889 1.05-.889h8.787zm8.604 9.441h-6.757c-.44 0-.797.545-.797 1.215 0 .672.358 1.215.797 1.215h6.757c.44 0 .798-.543.798-1.215 0-.67-.358-1.215-.798-1.215zm0-5.344h-6.757c-.44 0-.797.544-.797 1.215 0 .67.358 1.215.797 1.215h6.757c.44 0 .798-.545.798-1.215 0-.671-.358-1.215-.798-1.215z" transform="translate(23.192 19)"/>
                </g>
            </g>
        </g>
    </g>
</svg>
